Coordinates
version=1
nRows=13
nColumns=40
inDegrees=yes

Units are S.I. units (second, meters, Newtons, ...)
Angles are in degrees.

endheader
time	pelvis_tilt	pelvis_list	pelvis_rotation	pelvis_tx	pelvis_ty	pelvis_tz	hip_flexion_r	hip_adduction_r	hip_rotation_r	knee_angle_r	knee_angle_r_beta	ankle_angle_r	subtalar_angle_r	mtp_angle_r	hip_flexion_l	hip_adduction_l	hip_rotation_l	knee_angle_l	knee_angle_l_beta	ankle_angle_l	subtalar_angle_l	mtp_angle_l	lumbar_extension	lumbar_bending	lumbar_rotation	arm_flex_r	arm_add_r	arm_rot_r	elbow_flex_r	pro_sup_r	wrist_flex_r	wrist_dev_r	arm_flex_l	arm_add_l	arm_rot_l	elbow_flex_l	pro_sup_l	wrist_flex_l	wrist_dev_l
     49.64000000	     -5.25988655	     -5.08140320	     -1.38644970	      0.94453550	      0.92864258	      0.41380456	     30.61425598	     -4.38650056	     -5.01317300	     69.14396902	     69.14396902	     -4.21660328	    -16.32612920	      0.12787903	     17.77868920	     -5.62404399	     -6.48022519	     24.82440904	     24.82440904	     14.18647001	    -12.71585063	      2.09881301	    -10.94695319	      5.66482521	      1.46566498	      3.24671986	    -13.72505446	     -2.58142977	     39.51064206	     46.12751007	      0.00000000	      0.00000000	     12.19092647	    -16.11489940	     -4.89687287	     58.76006538	     46.71650301	      0.00000000	      0.00000000
     49.65314286	     -5.22419888	     -5.00896100	     -1.85479069	      0.94386711	      0.92963444	      0.41339512	     31.68696122	     -4.32838254	     -4.90913257	     68.61264464	     68.61264464	     -4.02516786	    -16.11244615	     -0.11051564	     16.80682672	     -5.52568548	     -6.91311561	     24.09348715	     24.09348715	     14.40151776	    -12.64820187	      2.27182263	    -10.99044975	      5.64428074	      1.61180627	      1.38976225	    -13.86071680	     -2.50199217	     38.01361473	     46.16401268	      0.00000000	      0.00000000	     13.37788954	    -16.50086668	     -5.32494672	     59.93719979	     46.78251438	      0.00000000	      0.00000000
     49.66628571	     -5.14304003	     -5.02438490	     -2.30525649	      0.94316928	      0.93067741	      0.41302775	     32.60497586	     -4.15415822	     -4.86854327	     67.86872084	     67.86872084	     -3.88745082	    -15.89667388	     -0.27858295	     15.80691401	     -5.51153219	     -7.31483458	     23.37448062	     23.37448062	     14.58772916	    -12.57001615	      2.39770025	    -11.13590285	      5.70940792	      1.83065417	     -0.37992728	    -14.00563627	     -2.47853506	     36.26927695	     46.21362134	      0.00000000	      0.00000000	     14.49160592	    -16.83858865	     -5.81776307	     61.50604972	     46.86016104	      0.00000000	      0.00000000
     49.67942857	     -5.13585914	     -5.07273198	     -2.70576985	      0.94246626	      0.93157874	      0.41274678	     33.47245113	     -3.94355362	     -4.93598329	     66.84726453	     66.84726453	     -3.69829681	    -15.66554281	     -0.31552442	     14.89085076	     -5.52213526	     -7.68647779	     22.63169524	     22.63169524	     14.76399394	    -12.44777194	      2.48531161	    -11.17719132	      5.82297540	      1.81240374	     -2.04329292	    -14.09809544	     -2.48225830	     34.82426102	     46.25569175	      0.00000000	      0.00000000	     15.45963358	    -17.29803811	     -6.30090330	     62.83271239	     46.92914568	      0.00000000	      0.00000000
     49.69257143	     -5.06691967	     -5.11055067	     -3.14694763	      0.94171820	      0.93247996	      0.41262887	     34.16651815	     -3.69351772	     -4.94440013	     65.51727389	     65.51727389	     -3.50262585	    -15.30881355	     -0.32422753	     13.91279320	     -5.52675275	     -8.08582095	     21.89683002	     21.89683002	     14.90118856	    -12.33356681	      2.51831361	    -11.32434554	      5.89080602	      1.94004741	     -3.56009598	    -14.19611780	     -2.54829204	     33.07381236	     46.31464043	      0.00000000	      0.00000000	     16.43288490	    -17.65779930	     -6.90784335	     64.59066693	     47.01573245	      0.00000000	      0.00000000
     49.70571429	     -5.07770240	     -5.15749632	     -3.52539472	      0.94089896	      0.93312902	      0.41264745	     34.80347563	     -3.44441052	     -5.05837364	     63.81671432	     63.81671432	     -3.26567686	    -14.94069458	     -0.36812463	     13.08100689	     -5.54760140	     -8.47015821	     21.22268409	     21.22268409	     14.99451275	    -12.21780584	      2.40100920	    -11.38885123	      5.95247636	      1.77627391	     -4.71221813	    -14.17236368	     -2.77854474	     31.16681652	     46.39227867	      0.00000000	      0.00000000	     17.07935179	    -18.16844527	     -7.73148774	     66.51417164	     47.12226117	      0.00000000	      0.00000000
     49.71885714	     -5.13590564	     -5.24552800	     -3.87914819	      0.94000201	      0.93370531	      0.41283597	     35.29841311	     -3.13637941	     -5.24753253	     61.64534250	     61.64534250	     -3.00161204	    -14.48263028	     -0.45417807	     12.29425528	     -5.61023571	     -8.82024739	     20.50400268	     20.50400268	     15.05501684	    -12.06654234	      2.30514809	    -11.41676716	      6.08330140	      1.54401547	     -5.89705601	    -14.20679907	     -3.01113782	     29.80958182	     46.44996707	      0.00000000	      0.00000000	     17.74172082	    -18.69167741	     -8.49094460	     68.03602468	     47.21643177	      0.00000000	      0.00000000
     49.73200000	     -5.20870185	     -5.33549137	     -4.22585935	      0.93906026	      0.93412937	      0.41320158	     35.62197659	     -2.80479064	     -5.47094757	     58.99640212	     58.99640212	     -2.67769475	    -13.91856313	     -0.57267197	     11.54830238	     -5.68461500	     -9.12842617	     19.83213339	     19.83213339	     15.17764809	    -11.89581757	      2.17237086	    -11.41940307	      6.17072858	      1.39415094	     -7.09197847	    -14.28619615	     -3.22100335	     28.84849394	     46.49152643	      0.00000000	      0.00000000	     18.43502091	    -19.14893600	     -9.13861917	     69.38925270	     47.29692870	      0.00000000	      0.00000000
     49.74514286	     -5.31413025	     -5.38943392	     -4.55481665	      0.93808442	      0.93437384	      0.41373132	     35.79843949	     -2.49641755	     -5.73849102	     55.89572572	     55.89572572	     -2.37552635	    -13.27626634	     -0.96718082	     10.85117246	     -5.74210929	     -9.54139990	     19.15998574	     19.15998574	     15.20668857	    -11.66954402	      1.88801869	    -11.44047957	      6.20300983	      1.23204544	     -8.26607287	    -14.30294474	     -3.57754187	     28.01302282	     46.53755104	      0.00000000	      0.00000000	     19.03829449	    -19.59377434	     -9.93580448	     71.06495279	     47.39485126	      0.00000000	      0.00000000
     49.75828571	     -5.53356262	     -5.45277318	     -4.84847040	      0.93704939	      0.93431029	      0.41437490	     35.82818944	     -2.15833084	     -6.08848573	     52.20831325	     52.20831325	     -2.44285027	    -12.72848115	     -2.49135384	     10.31459830	     -5.82980511	     -9.91355247	     18.52492787	     18.52492787	     15.05817591	    -11.43716621	      1.03856474	    -11.35469757	      6.26613948	      0.72227366	     -9.17466682	    -14.24855431	     -4.60193997	     27.47557238	     46.61300541	      0.00000000	      0.00000000	     19.05750746	    -20.11910130	    -11.23553953	     73.28208942	     47.54778201	      0.00000000	      0.00000000
     49.77142857	     -5.73838005	     -5.54345275	     -5.08319863	      0.93602857	      0.93418249	      0.41515807	     35.65127780	     -1.77630137	     -6.49743698	     48.17454810	     48.17454810	     -1.95080658	    -11.72349639	     -2.43863093	      9.83096355	     -5.93476818	    -10.11073078	     18.02760087	     18.02760087	     15.18870669	    -11.31756769	      0.95176240	    -11.22866210	      6.35140635	      0.49040855	    -10.25085216	    -14.33711689	     -4.74789217	     27.12806789	     46.62612484	      0.00000000	      0.00000000	     19.77140075	    -20.61531705	    -11.54750436	     73.90920231	     47.58907359	      0.00000000	      0.00000000
     49.78457143	     -5.90981286	     -5.57428501	     -5.30644725	      0.93510064	      0.93393815	      0.41599347	     35.20942803	     -1.43836796	     -6.94389636	     43.74502529	     43.74502529	     -1.46747145	    -10.40105770	     -2.48472096	      9.29211646	     -5.98566103	    -10.41611843	     17.50337670	     17.50337670	     15.31487863	    -11.04508385	      0.73496615	    -11.16909397	      6.39420689	      0.39997670	    -11.36309250	    -14.37491114	     -4.96662863	     26.96195192	     46.63568191	      0.00000000	      0.00000000	     20.45750789	    -20.99752006	    -11.88580031	     74.81461769	     47.63744247	      0.00000000	      0.00000000
     49.79771429	     -6.06307984	     -5.53781530	     -5.51788540	      0.93427715	      0.93347424	      0.41699187	     34.53736402	     -1.14710658	     -7.45179351	     39.01741613	     39.01741613	     -1.08047272	     -8.72736701	     -2.82321906	      8.73660412	     -5.99388981	    -10.85435003	     16.98941447	     16.98941447	     15.40939685	    -10.56958356	      0.20407206	    -11.17077903	      6.31553830	      0.33830179	    -12.53649562	    -14.32245349	     -5.45585371	     27.26221508	     46.64052131	      0.00000000	      0.00000000	     21.04280565	    -21.33070633	    -12.30901505	     76.03707384	     47.70092305	      0.00000000	      0.00000000
